<mxfile host="app.diagrams.net" modified="2024-03-09T16:56:46.773Z" agent="Mozilla/5.0 (X11; Linux x86_64; rv:123.0) Gecko/20100101 Firefox/123.0" version="24.0.4" etag="OOdq-D13vgpDn3-p_iVQ" type="github">
  <diagram name="Page-1" id="1q134keAwTXbtWhoL7U7">
    <mxGraphModel>
      <root>
        <mxCell id="0" />
        <mxCell id="1" parent="0" />
      </root>
    </mxGraphModel>
  </diagram>
</mxfile>
